<svg id="visual" viewBox="0 0 100vw 100%" width="3200" height="1800" xmlns="http://www.w3.org/2000/svg" xmlns:xlink="http://www.w3.org/1999/xlink" version="1.1"><rect x="0" y="0" width="3200" height="1800" fill="#293241"></rect><path d="M0 1175L457 1076L914 1358L1371 1076L1829 1087L2286 1355L2743 1328L3200 1174L3200 1801L2743 1801L2286 1801L1829 1801L1371 1801L914 1801L457 1801L0 1801Z" fill="#98c1d9"></path><path d="M0 1219L457 1135L914 1085L1371 1426L1829 1428L2286 1310L2743 1445L3200 1405L3200 1801L2743 1801L2286 1801L1829 1801L1371 1801L914 1801L457 1801L0 1801Z" fill="#7fa6c2"></path><path d="M0 1430L457 1486L914 1248L1371 1530L1829 1367L2286 1303L2743 1377L3200 1502L3200 1801L2743 1801L2286 1801L1829 1801L1371 1801L914 1801L457 1801L0 1801Z" fill="#678cac"></path><path d="M0 1499L457 1456L914 1615L1371 1406L1829 1613L2286 1396L2743 1489L3200 1400L3200 1801L2743 1801L2286 1801L1829 1801L1371 1801L914 1801L457 1801L0 1801Z" fill="#517396"></path><path d="M0 1703L457 1561L914 1577L1371 1594L1829 1630L2286 1594L2743 1640L3200 1564L3200 1801L2743 1801L2286 1801L1829 1801L1371 1801L914 1801L457 1801L0 1801Z" fill="#3d5a80"></path></svg>